<?xml version="1.0" encoding="utf-8"?>
<!-- Generator: Adobe Illustrator 25.4.1, SVG Export Plug-In . SVG Version: 6.00 Build 0)  -->
<svg version="1.1" id="Layer_1" xmlns="http://www.w3.org/2000/svg" xmlns:xlink="http://www.w3.org/1999/xlink" x="0px" y="0px"
	 viewBox="0 0 607.6 148.9" style="enable-background:new 0 0 607.6 148.9;" xml:space="preserve">
<style type="text/css">
	.st0{fill:#1A4276;}
	.st1{fill:url(#SVGID_1_);}
	.st2{fill:url(#SVGID_00000109000023322682931360000012511783891891756465_);}
	.st3{fill:#FFFFFF;}
	.st4{enable-background:new    ;}
</style>
<g>
	<g>
		<path class="st0" d="M120.9,134.9c0-13.2,0-25.8,0-38.7c-0.8-0.1-1.4-0.1-2-0.1c-5.9,0-11.7,0-17.6,0c-1.3,0-1.7-0.4-1.7-1.6
			c-0.1-4,0.1-8,1.3-11.8c0.4-1.2,0.9-1.6,2.2-1.6c16.4,0,32.9,0,49.4,0c1.3,0,1.7,0.4,2,1.7c0.9,4.3,1.2,8.7,0.9,13.3
			c-6.4,0-12.8,0-19.3,0c-0.1,0.7-0.1,1.2-0.1,1.8c0,8.5,0.1,17,0.1,25.5c0,0.5-0.2,1.1-0.1,1.6c0.8,3.2-1.2,4.6-3.7,5.6
			C128.5,132.1,124.8,133.4,120.9,134.9z"/>
		<g>
			
				<linearGradient id="SVGID_1_" gradientUnits="userSpaceOnUse" x1="110.831" y1="595.0376" x2="110.831" y2="458.8973" gradientTransform="matrix(1 0 0 1 0 -462)">
				<stop  offset="0" style="stop-color:#F15A25"/>
				<stop  offset="0.8265" style="stop-color:#F78E1F"/>
				<stop  offset="0.9291" style="stop-color:#F7941D"/>
			</linearGradient>
			<path class="st1" d="M152.7,77.2c-0.8,0-1.4,0.1-1.9,0.1c-6.7,0-13.4,0.1-20.1-0.1c-0.9,0-2.1-0.5-2.8-1.1
				c-6.6-5.9-14.1-8-22.5-5.2c-8.2,2.7-13.6,8.4-15.1,17c-1.2,6.6,0.3,12.7,4.6,18.1c3.5,4.4,8,7,13.6,7.8c2.9,0.4,5.9,0.3,8.9,0.4
				c0,6.3,0,13,0,19.7c0,1.2-0.7,1.2-1.6,1.2c-10.6,0.9-20.1-1.9-28.8-7.9c-4.7-3.3-8.8-7.3-11.6-12.2C59.9,88.6,73.8,57,102,50
				c20.6-5.1,41.7,5.6,50.1,25.2C152.2,75.7,152.4,76.4,152.7,77.2z"/>
			
				<linearGradient id="SVGID_00000164492093884261113970000005819979073405929394_" gradientUnits="userSpaceOnUse" x1="146.535" y1="595.0376" x2="146.535" y2="458.8973" gradientTransform="matrix(1 0 0 1 0 -462)">
				<stop  offset="0" style="stop-color:#F15A25"/>
				<stop  offset="0.9291" style="stop-color:#F7941D"/>
			</linearGradient>
			<path style="fill:url(#SVGID_00000164492093884261113970000005819979073405929394_);" d="M138.6,126c-0.1-0.9-0.1-1.3-0.1-1.7
				c0-7.8-0.1-15.6-0.1-23.4c0-0.8-0.3-1.9,1-1.9c5,0,10,0,15.3,0C152.8,110.1,147.3,118.7,138.6,126z"/>
		</g>
	</g>
	<g>
		<path class="st3" d="M60.3,36.3c0.6-0.7,1-1.6,1.8-2c2-1.1,4.2-2,6.3-2.9c1.6-0.7,3.2-1.2,3.3-3.5c0-0.4,1.4-1.2,2.1-1.1
			c3.5,0.3,6.6-0.9,9.7-2.3c8.2-3.9,16.5-7.5,24.7-11.4c2.4-1.1,4.5-1,6.8,0.1c14.7,6.9,29.4,13.7,44.2,20.5
			c1.4,0.7,3.5,0.9,2.7,3.3c-0.3,0.8-1,1.8-1.8,2.2c-6.1,2.9-12.2,5.8-18.4,8.4c-2.4,1-3.5,2.4-3.2,5c0.1,0.9,0,1.7,0,2.9
			c-17.6-11.3-34.9-11.3-52.5-0.2c0-4-0.1-7.8,0.1-11.7c0-0.6,0.8-1.3,1.4-1.7c6.7-3.8,13.8-5.7,21.5-5.9c1.1,0,2.2-0.8,3.3-1.3
			c-1.1-0.3-2.2-0.9-3.3-1c-8.2-0.1-15.8,1.8-22.9,6c-1.7,1-2.6,2-2.4,4c0.2,1.6,0,3.3,0,5.3c-2.7-1.2-5.1-2.3-7.4-3.5
			c-0.5-0.2-0.7-1.2-0.8-1.9c-0.1-1.8,0-3.6,0-5.5c0-5.8,0-5.7,5.4-8.2c9.7-4.4,19.3-8.9,29-13.3c0.3-0.1,0.7-0.2,0.9-0.5
			c0.5-0.6,0.8-1.2,1.2-1.8c-0.7,0-1.4-0.3-2,0c-2.7,1.1-5.3,2.4-7.9,3.6c-8.7,4-17.3,8-26.1,11.9c-1.8,0.8-2.5,1.9-2.5,3.7
			c0.1,3.9,0,7.8,0.1,11.6c0,0.6,0,1.5,0.4,1.9c1.6,1.7,1.8,3.2,0.2,5c-0.3,0.4,0,1.4,0.2,2.1c1.2,4.2,1.3,9.5,0.3,13.9
			c-1.4,0-2.8,0-4.4,0c-1-4.7-0.9-9.3,0.3-13.9c0.2-0.9-0.3-1.9-0.3-2.9c0-1.1,0-2.3,0.2-3.4c0.1-0.6,0.8-1.1,0.8-1.7
			c0.1-4.6,0-9.2,0-14.2c-3.8,1.7-7,3.2-10.3,4.7C60.8,36.7,60.5,36.5,60.3,36.3z"/>
		<path class="st3" d="M69.3,35.6c0,2.5,0,4.6,0,7.1c-2.3-1-4.5-2.1-6.7-3.1c0-0.2-0.1-0.5-0.1-0.7C64.7,37.8,66.8,36.8,69.3,35.6z"
			/>
	</g>
</g>
<g>
	<g class="st4">
		<path class="st3" d="M173.7,84.6c1.8-4.5,4.9-6.7,9.3-6.7c0,0,0.1,0,0.1,0c0.2,0,1.3,0,3.2,0c1.9,0,4.2,0,6.8,0c2.6,0,5,0,7.1,0
			s3.4,0,3.9,0c3,0,5.4,1.1,7.3,3.2c1.9,2.1,2.5,4.5,1.9,7.3l-0.7,2.8c-0.5,2.1-1.1,4.6-1.9,7.7s-1.4,5.8-2,8.4
			c-0.6,2.6-1,4.2-1.2,4.8c-1.6,4.5-4.7,6.7-9.3,6.7c-0.2,0-1.3,0-3.2,0c-1.9,0-4.2,0-6.8,0c-2.6,0-5,0-7.1,0s-3.4,0-3.9,0
			c-3.1,0-5.5-1.1-7.4-3.2c-1.9-2.1-2.5-4.5-2-7.3c1.1-4.4,2-8.1,2.7-11.1c0.7-2.9,1.4-5.6,2-8C173.2,86.7,173.6,85.2,173.7,84.6z
			 M196.5,109.3c0.6,0,1-0.3,1.3-1c0.9-3.7,1.6-6.8,2.2-9.2c0.6-2.4,1.1-4.7,1.6-6.7c0.5-2,0.8-3.3,0.9-3.8c0.1-0.4,0-0.7-0.2-1
			c-0.2-0.3-0.6-0.4-1-0.4c0,0-0.1,0-0.1,0c-0.2,0-1,0-2.5,0c-1.5,0-3.3,0-5.3,0c-2,0-3.9,0-5.5,0s-2.7,0-3.1,0
			c-0.6,0-1.1,0.3-1.3,1c0,0.1-0.3,1.1-0.7,2.9s-1,3.9-1.6,6.4c-0.6,2.4-1.1,4.7-1.6,6.7c-0.5,2-0.8,3.3-0.9,3.8
			c-0.1,0.4,0,0.7,0.3,1c0.3,0.3,0.6,0.4,1,0.4c0.1,0,1,0,2.5,0c1.5,0,3.3,0,5.3,0c2,0,3.9,0,5.6,0S196.1,109.3,196.5,109.3z"/>
		<path class="st3" d="M225.2,87.9h9.8l-2.2,8.8h-5.3c-0.6,0-1.2,0.2-1.7,0.6c-0.5,0.4-0.8,1-1,1.6l-4.8,19.8h-9.8l5.4-22.3
			C216.9,91.4,220.1,88.6,225.2,87.9z"/>
		<path class="st3" d="M244.6,118.5c-2.9-0.2-5.1-0.8-6.6-2s-2.6-2.7-3.4-4.6c-1.7-4.2-1.3-8.9,1.1-14.3c3.2-6.1,8.5-9.3,15.8-9.8
			H269l-7.4,30.7L244.6,118.5z M256.3,99.6L256.3,99.6l0.7-3.2h-4.7c-2.5,0-4.5,0.7-6.1,2c-1.5,1.2-2.5,2.6-2.9,4.4
			c-1.4,4.7,0,7.1,4.2,7.1h6.4L256.3,99.6z"/>
		<path class="st3" d="M294.9,118.6H285l5.1-20.3c0.1-0.5-0.1-1-0.3-1.4c-0.3-0.4-0.7-0.6-1.3-0.6h-7.4l-5.4,22.3h-9.9l7.5-30.7
			h12.1v0h6.8c2.7,0,4.8,1,6.4,3.1c1.6,2.1,2.1,4.5,1.5,7.3L294.9,118.6z"/>
		<path class="st3" d="M299.3,118.6l7.6-30.9h10l-7.5,30.9H299.3z M309.4,77.8h10l-1.9,7.3h-10L309.4,77.8z"/>
		<path class="st3" d="M321.3,87.9h9.9l-4.9,20.3c-0.1,0.5,0.1,1,0.4,1.4s0.7,0.6,1.3,0.6h6.9l5.7-22.3h9.9l-7.7,30.7h-9l0,0h-9.4
			c-2.7,0-4.9-1-6.4-3.1c-1.6-2.1-2.1-4.5-1.5-7.3L321.3,87.9z"/>
		<path class="st3" d="M389.1,118.6h-9.9l5.1-20.3c0.1-0.5,0-1-0.3-1.4c-0.3-0.4-0.8-0.6-1.3-0.6H379h-0.7c0,0.6-0.1,1.3-0.3,2
			l-5.1,20.3H363l5.1-20.3c0.1-0.5,0-1-0.3-1.4c-0.3-0.4-0.8-0.6-1.3-0.6h-4.3l-5.4,22.3h-10l7.5-30.7h9v0h6.8c3.9,0,6.5,2,7.9,5.9
			l1.4-5.9h3.4l0,0h3.4c2.7,0,4.9,1,6.5,3.1c1.6,2.1,2.1,4.5,1.5,7.3L389.1,118.6z"/>
	</g>
</g>
<g class="st4">
	<path class="st3" d="M414,87.1h-13.5l2.3-9.3h36.1l-2.3,9.3h-13.1l-7.9,31.5H406L414,87.1z"/>
	<path class="st3" d="M447,118.5c-2.9-0.2-5.1-0.8-6.6-2s-2.6-2.7-3.4-4.6c-1.7-4.2-1.3-8.9,1.1-14.3c3.2-6.1,8.5-9.3,15.8-9.8h10
		c3.1,0.2,5.1,1.1,6.1,2.7s1.2,3.4,0.7,5.4l-0.1,0.3l-2.7,11h-18c-1-0.1-1.5-0.9-1.5-2.2s0.4-2.7,1.3-4s2.1-2.1,3.8-2.2h3.5h3.2
		l0.6-2.5h-0.1h-6.1h0c-2.4,0.1-4.4,0.8-5.9,2c-1.5,1.2-2.5,2.6-2.9,4.4c-1.2,4.6,0.2,7,4.2,7.1h4.6h12.8l-2.1,8.8L447,118.5z"/>
	<path class="st3" d="M482.4,118.5c-2.9-0.2-5.1-0.8-6.6-2s-2.6-2.7-3.4-4.6c-1.7-4.2-1.3-8.9,1.1-14.3c3.2-6.1,8.5-9.3,15.8-9.8
		h17.5l-2,8.4h-9.9H490h0c-2.4,0.1-4.4,0.8-5.9,2c-1.5,1.2-2.5,2.6-2.9,4.4c-1.4,4.7,0,7.1,4.2,7.1h4.6h11.5l-2.1,8.8L482.4,118.5z"
		/>
	<path class="st3" d="M513.4,77.8h10l-2.3,10h8.6c2.8,0,4.9,1,6.5,3.1c1.6,2.1,2.1,4.5,1.5,7.3l-4.9,20.4h-10l4.9-20.4
		c0.1-0.5,0-1-0.3-1.4c-0.3-0.4-0.8-0.6-1.3-0.6h-7.1l-5.3,22.4h-10L513.4,77.8z"/>
</g>
</svg>
